<svg width="30" height="24" viewBox="0 0 30 24" fill="none" xmlns="http://www.w3.org/2000/svg">
<path d="M25.2992 2.55074C23.415 1.6724 21.375 1.0349 19.25 0.666569C19.2314 0.665973 19.2128 0.66947 19.1957 0.676813C19.1786 0.684156 19.1632 0.695167 19.1508 0.709069C18.8958 1.17657 18.5983 1.78574 18.4 2.25324C16.1461 1.91324 13.8539 1.91324 11.6 2.25324C11.4017 1.77157 11.1042 1.17657 10.835 0.709069C10.8208 0.680736 10.7783 0.666569 10.7358 0.666569C8.61083 1.0349 6.58499 1.6724 4.68666 2.55074C4.67249 2.55074 4.65833 2.5649 4.64416 2.57907C0.790827 8.3449 -0.271674 13.9549 0.252493 19.5082C0.252493 19.5366 0.26666 19.5649 0.294993 19.5791C2.84499 21.4491 5.29583 22.5824 7.71833 23.3332C7.76083 23.3474 7.80333 23.3332 7.81749 23.3049C8.38416 22.5257 8.89416 21.7041 9.33333 20.8399C9.36166 20.7832 9.33333 20.7266 9.27666 20.7124C8.46916 20.4007 7.70416 20.0324 6.95333 19.6074C6.89666 19.5791 6.89666 19.4941 6.93916 19.4516C7.09499 19.3382 7.25083 19.2107 7.40666 19.0974C7.43499 19.0691 7.47749 19.0691 7.50583 19.0832C12.3792 21.3074 17.635 21.3074 22.4517 19.0832C22.48 19.0691 22.5225 19.0691 22.5508 19.0974C22.7067 19.2249 22.8625 19.3382 23.0183 19.4657C23.075 19.5082 23.075 19.5932 23.0042 19.6216C22.2675 20.0607 21.4883 20.4149 20.6808 20.7266C20.6242 20.7407 20.61 20.8116 20.6242 20.8541C21.0775 21.7182 21.5875 22.5399 22.14 23.3191C22.1825 23.3332 22.225 23.3474 22.2675 23.3332C24.7042 22.5824 27.155 21.4491 29.705 19.5791C29.7333 19.5649 29.7475 19.5366 29.7475 19.5082C30.3708 13.0907 28.7133 7.52324 25.3558 2.57907C25.3417 2.5649 25.3275 2.55074 25.2992 2.55074ZM10.07 16.1224C8.61083 16.1224 7.39249 14.7766 7.39249 13.1191C7.39249 11.4616 8.58249 10.1157 10.07 10.1157C11.5717 10.1157 12.7617 11.4757 12.7475 13.1191C12.7475 14.7766 11.5575 16.1224 10.07 16.1224ZM19.9442 16.1224C18.485 16.1224 17.2667 14.7766 17.2667 13.1191C17.2667 11.4616 18.4567 10.1157 19.9442 10.1157C21.4458 10.1157 22.6358 11.4757 22.6217 13.1191C22.6217 14.7766 21.4458 16.1224 19.9442 16.1224Z" fill="#00344A"/>
</svg>
