<svg width="28" height="26" viewBox="0 0 28 26" fill="none" xmlns="http://www.w3.org/2000/svg">
<path d="M5.83165 3.08329C5.83127 3.83473 5.5324 4.55525 5.00078 5.08634C4.46916 5.61743 3.74834 5.91558 2.9969 5.9152C2.24545 5.91483 1.52493 5.61595 0.993841 5.08434C0.462753 4.55272 0.164603 3.8319 0.164978 3.08045C0.165354 2.32901 0.464225 1.60849 0.995844 1.0774C1.52746 0.54631 2.24828 0.24816 2.99973 0.248536C3.75117 0.248911 4.4717 0.547783 5.00278 1.0794C5.53387 1.61102 5.83202 2.33184 5.83165 3.08329ZM5.91665 8.01328H0.249978V25.75H5.91665V8.01328ZM14.87 8.01328H9.23165V25.75H14.8133V16.4425C14.8133 11.2575 21.5708 10.7758 21.5708 16.4425V25.75H27.1666V14.5158C27.1666 5.77495 17.165 6.10079 14.8133 10.3933L14.87 8.01328Z" fill="#00344A"/>
</svg>
