<svg width="24" height="26" viewBox="0 0 24 26" fill="none" xmlns="http://www.w3.org/2000/svg">
<path d="M18.5166 4.245C18.5166 4.245 19.2391 4.95333 18.5166 4.245C17.5482 3.13946 17.0146 1.7197 17.015 0.25H12.6375V17.8167C12.6037 18.7673 12.2024 19.6677 11.518 20.3283C10.8336 20.9889 9.91953 21.3582 8.96831 21.3583C6.95664 21.3583 5.28498 19.715 5.28498 17.675C5.28498 15.2383 7.63664 13.4108 10.0591 14.1617V9.685C5.17164 9.03333 0.893311 12.83 0.893311 17.675C0.893311 22.3925 4.80331 25.75 8.95414 25.75C13.4025 25.75 17.015 22.1375 17.015 17.675V8.76417C18.7901 10.039 20.9212 10.7229 23.1066 10.7192V6.34167C23.1066 6.34167 20.4433 6.46917 18.5166 4.245Z" fill="#00344A"/>
</svg>
