<svg width="31" height="26" viewBox="0 0 31 26" fill="none" xmlns="http://www.w3.org/2000/svg">
<path d="M30.7542 3.75016C29.6312 4.26058 28.4208 4.596 27.1667 4.75641C28.45 3.9835 29.4417 2.7585 29.9083 1.28558C28.6979 2.01475 27.3562 2.52516 25.9417 2.81683C24.7896 1.56266 23.1708 0.833496 21.3333 0.833496C17.9062 0.833496 15.1062 3.6335 15.1062 7.08975C15.1062 7.58558 15.1646 8.06683 15.2667 8.51891C10.075 8.25641 5.45207 5.76266 2.37499 1.98558C1.8354 2.90433 1.52915 3.9835 1.52915 5.121C1.52915 7.29391 2.6229 9.21891 4.31457 10.3127C3.27915 10.3127 2.31665 10.021 1.47082 9.5835V9.62724C1.47082 12.6606 3.62915 15.1981 6.48749 15.7668C5.5698 16.018 4.60637 16.0529 3.6729 15.8689C4.069 17.1121 4.84473 18.1999 5.89105 18.9794C6.93738 19.7589 8.20168 20.191 9.50624 20.2147C7.29486 21.9654 4.55373 22.9117 1.73332 22.8981C1.23749 22.8981 0.741652 22.8689 0.245819 22.8106C3.01665 24.5897 6.31249 25.6252 9.84165 25.6252C21.3333 25.6252 27.6479 16.0877 27.6479 7.81891C27.6479 7.54183 27.6479 7.27933 27.6333 7.00224C28.8583 6.12724 29.9083 5.01891 30.7542 3.75016Z" fill="#00344A"/>
</svg>
