<svg width="30" height="24" viewBox="0 0 30 24" fill="none" xmlns="http://www.w3.org/2000/svg">
<path d="M29.118 4.27041C28.9959 3.78077 28.7569 3.32802 28.4215 2.95098C28.0861 2.57394 27.6643 2.28385 27.1922 2.10557C22.65 0.352444 15.3984 0.365726 15 0.365726C14.6016 0.365726 7.35 0.352444 2.80781 2.10557C2.33572 2.28385 1.91389 2.57394 1.57849 2.95098C1.24308 3.32802 1.0041 3.78077 0.882031 4.27041C0.536719 5.58526 0.125 8.00244 0.125 12.0001C0.125 15.9978 0.536719 18.4149 0.882031 19.7298C1.0041 20.2194 1.24308 20.6722 1.57849 21.0492C1.91389 21.4263 2.33572 21.7164 2.80781 21.8946C7.16406 23.5814 13.9906 23.6345 14.907 23.6345H15.093C16.0094 23.6345 22.8359 23.5814 27.1922 21.8946C27.6643 21.7164 28.0861 21.4263 28.4215 21.0492C28.7569 20.6722 28.9959 20.2194 29.118 19.7298C29.4633 18.4149 29.875 15.9978 29.875 12.0001C29.875 8.00244 29.4633 5.58526 29.118 4.27041ZM19.5422 12.4384L13.1672 16.6884C13.0826 16.7506 12.98 16.7833 12.875 16.7814C12.787 16.7781 12.7009 16.7554 12.6227 16.7149C12.5378 16.6708 12.4668 16.604 12.4175 16.5219C12.3683 16.4399 12.3428 16.3458 12.3438 16.2501V7.7501C12.3428 7.65442 12.3683 7.56033 12.4175 7.47828C12.4668 7.39623 12.5378 7.32942 12.6227 7.28526C12.7074 7.24007 12.8027 7.21868 12.8986 7.22336C12.9945 7.22804 13.0873 7.25861 13.1672 7.31182L19.5422 11.5618C19.6163 11.6085 19.6773 11.6731 19.7196 11.7498C19.7619 11.8264 19.7841 11.9126 19.7841 12.0001C19.7841 12.0876 19.7619 12.1738 19.7196 12.2504C19.6773 12.3271 19.6163 12.3917 19.5422 12.4384Z" fill="#00344A"/>
</svg>
